<?xml version="1.0" encoding="UTF-8"?>
<svg id="Layer_1" data-name="Layer 1" xmlns="http://www.w3.org/2000/svg" viewBox="0 0 432 432">
  <defs>
    <style>
      .cls-1 {
        fill: #511b1b;
      }

      .cls-1, .cls-2 {
        stroke-width: 0px;
      }

      .cls-2 {
        fill: #e25a5a;
      }
    </style>
  </defs>
  <path class="cls-1" d="m65.66,312.72c-11.6-11.56-33.99-33.88-35.29-66.87-1.17-29.65,14.99-60.18,39.01-77.08,41.65-29.31,76.98,3.44,123.98-28.33,21.05-14.23,20.41-25.15,46.9-39.47,9.48-5.13,35.46-19.17,66.4-16.72,44.03,3.49,79.22,38.87,94.73,72.9,24.85,54.53,3.94,115.96-27.4,152.31-42.37,49.14-103.35,51.91-146.27,53.87-24.14,1.1-106.42,4.84-162.06-50.62Z"/>
  <path class="cls-2" d="m54.98,296.93c-11.6-11.56-33.99-33.88-35.29-66.87-1.17-29.65,14.99-60.18,39.01-77.08,41.65-29.31,76.98,3.44,123.98-28.33,21.05-14.23,20.41-25.15,46.9-39.47,9.48-5.13,35.46-19.17,66.4-16.72,44.03,3.49,79.22,38.87,94.73,72.9,24.85,54.53,3.94,115.96-27.4,152.31-42.37,49.14-103.35,51.91-146.27,53.87-24.14,1.1-106.42,4.84-162.06-50.62Z"/>
</svg>