<svg xmlns="http://www.w3.org/2000/svg" xmlns:xlink="http://www.w3.org/1999/xlink" xml:space="preserve" width="100mm" height="100mm" version="1.1" style="shape-rendering:geometricPrecision; text-rendering:geometricPrecision; image-rendering:optimizeQuality; fill-rule:evenodd; clip-rule:evenodd" viewBox="0 0 1783.63 1007.7">
 <defs>
  <style type="text/css">
   <![CDATA[
    .fil2 {fill:none}
    .fil1 {fill:#FDF6EC;fill-rule:nonzero}
    .fil0 {fill:#B68D3B;fill-rule:nonzero}
    .fil3 {fill:black;fill-rule:nonzero}
   ]]>
  </style>
 </defs>
 <g id="Layer_x0020_1">
  <metadata id="CorelCorpID_0Corel-Layer"/>
  <path class="fil0" d="M1764.69 518.97c0,-146.37 -145.82,-281.25 -318.14,-257.14 -38.68,-38.19 -242.42,-231.58 -564.21,-231.58 -54.35,0 -335.23,5.51 -564.2,231.58 -172.33,-24.12 -318.14,110.77 -318.14,257.14 0,146.36 145.81,281.24 318.14,257.12 111.68,125.71 355.36,231.6 564.2,231.6 208.86,0 452.53,-105.89 564.21,-231.6 172.32,24.12 318.14,-110.76 318.14,-257.12z"/>
  <path class="fil1" d="M1783.63 488.74c0,-146.37 -145.82,-281.24 -318.14,-257.12 -38.68,-38.2 -242.42,-231.62 -564.21,-231.62 -54.35,0 -335.23,5.53 -564.2,231.62 -172.33,-24.12 -318.14,110.75 -318.14,257.12 0,146.37 145.81,281.24 318.14,257.12 111.68,125.71 355.36,231.62 564.2,231.62 208.86,0 452.53,-105.91 564.21,-231.62 172.32,24.12 318.14,-110.76 318.14,-257.12z"/>
  <path class="fil0" d="M341.84 675.82c1.61,0 3.15,0.68 4.24,1.9l21.5 24.21c102.58,115.46 333.48,209.38 514.76,209.38 181.26,0 412.19,-93.93 514.77,-209.38l21.5 -24.21c1.26,-1.42 3.12,-2.14 5.03,-1.83l32.08 4.48c66.43,9.3 133.51,-12.32 182.03,-58.85 38.63,-37.02 60.79,-85.41 60.79,-132.79 0,-103.23 -98.98,-193.81 -211.84,-193.81 -10.23,0 -20.66,0.74 -30.99,2.17l-29.61 4.15c-1.65,0.3 -3.5,-0.33 -4.76,-1.58l-21.28 -21c-50.48,-49.85 -237.05,-212.52 -517.74,-212.52 -70.97,0 -318.01,15.33 -517.73,212.52l-21.28 21c-1.26,1.27 -3.06,1.92 -4.77,1.58l-29.59 -4.15c-10.34,-1.43 -20.76,-2.17 -30.99,-2.17 -112.85,0 -211.84,90.57 -211.84,193.81 0,103.22 99,193.79 211.87,193.79 10.29,0 20.72,-0.73 30.96,-2.16l32.08 -4.48c0.27,-0.06 0.52,-0.07 0.79,-0.07zm540.5 246.83c-184.08,0 -418.78,-95.64 -523.23,-213.19l-19.49 -21.92 -29.09 4.06c-10.76,1.5 -21.71,2.27 -32.53,2.27 -118.9,0 -223.2,-95.86 -223.2,-205.13 0,-109.28 104.29,-205.15 223.17,-205.15 10.75,0 21.71,0.77 32.56,2.3l26.82 3.75 19.29 -19.02c202.78,-200.23 453.64,-215.8 525.69,-215.8 285.03,0 474.44,165.18 525.71,215.8l19.29 19.02 26.82 -3.75c10.85,-1.53 21.81,-2.3 32.56,-2.3 118.88,0 223.17,95.86 223.17,205.15 0,50.44 -23.42,101.81 -64.28,140.97 -43.17,41.39 -99.6,64.17 -158.91,64.17 -10.83,0 -21.78,-0.77 -32.55,-2.27l-29.09 -4.06 -19.49 21.92c-104.44,117.56 -339.16,213.19 -523.24,213.19z"/>
  <path class="fil0" d="M252.99 476.75c-4.93,0 -9.14,2.97 -10.98,7.22 -0.85,-1.09 -1.9,-2.04 -3.25,-2.56 -6.65,-3.46 -15.01,-8.82 -23.28,-17.11 -10.65,-10.63 -16.56,-21.54 -19.74,-28.64 -3.28,2.09 -5.32,4.52 -6.65,6.55 -4.21,6.47 -4.63,15.09 -2,24.19 -2.54,-0.45 -5.27,-0.81 -8,-0.81 -22.29,0.09 -37.19,18 -41.2,23.1 4,5.18 18.91,23.1 41.2,23.1 2.81,0 5.46,-0.28 8,-0.83 -2.63,9.1 -2.09,17.74 2,24.21 1.37,2.08 3.37,4.45 6.65,6.63 3.18,-7.1 9.08,-18.02 19.74,-28.66 8.27,-8.27 16.63,-13.73 23.28,-17.17 1.31,-0.52 2.35,-1.47 3.2,-2.54 1.82,4.29 6.06,7.28 11.02,7.28 6.62,0 11.99,-5.36 11.99,-11.98 0,-6.62 -5.38,-11.98 -11.99,-11.98z"/>
  <path class="fil0" d="M1585.58 465.68c-2.81,0 -5.46,0.28 -8.01,0.83 2.65,-9.1 2.1,-17.75 -1.99,-24.21 -1.37,-2.08 -3.37,-4.45 -6.65,-6.63 -3.19,7.1 -9.08,18.02 -19.74,28.64 -8.27,8.28 -16.65,13.74 -23.28,17.19 -1.33,0.5 -2.35,1.47 -3.21,2.54 -1.83,-4.29 -6.08,-7.28 -11.02,-7.28 -6.62,0 -11.99,5.36 -11.99,11.98 0,6.62 5.37,11.98 11.99,11.98 4.93,0 9.13,-2.97 10.98,-7.23 0.85,1.09 1.9,2.04 3.25,2.56 6.63,3.46 15.01,8.82 23.28,17.09 10.65,10.64 16.55,21.56 19.74,28.66 3.28,-2.09 5.32,-4.52 6.65,-6.55 4.21,-6.47 4.63,-15.09 1.99,-24.19 2.55,0.45 5.28,0.81 8.01,0.81 22.29,-0.08 37.19,-18 41.2,-23.1 -4,-5.18 -18.91,-23.09 -41.2,-23.09z"/>
  
  
  
  
  
  
  
  
  
  
  
  
  
  
  
  
  
  
  
  
  
  
  
  
  
  
  
  
  
  
  
  
  
  
  
  
  
  
  
 </g>
</svg>